# AST/ASF file generated using VICON BodyLanguage
# -----------------------------------------------
:version 1.10
:name VICON
:units
  mass 1.0
  length 0.45
  angle deg
:documentation
   .ast/.asf automatically generated from VICON data using
   VICON BodyBuilder and BodyLanguage model FoxedUp or BRILLIANT.MOD
:root
   order TX TY TZ RX RY RZ
   axis XYZ
   position 0 0 0  
   orientation 0 0 0 
:bonedata
  begin
     id 1 
     name lhipjoint
     direction 0.602128 -0.715006 0.355257 
     length 2.21237 
     axis 0 0 0  XYZ
  end
  begin
     id 2 
     name lfemur
     direction 0.34202 -0.939693 0  
     length 6.71649  
     axis 0 0 20  XYZ
    dof rx ry rz
    limits (-160.0 20.0)
           (-70.0 70.0)
           (-60.0 70.0)
  end
  begin
     id 3 
     name ltibia
     direction 0.34202 -0.939693 0   
     length 6.97123   
     axis 0 0 20   XYZ
    dof rx
    limits (-10.0 170.0)
  end
  begin
     id 4 
     name lfoot
     direction 0.0655697 -0.180151 0.981451   
     length 1.80924   
     axis -90 7.62852e-016 20   XYZ
    dof rx rz
    limits (-45.0 90.0)
           (-70.0 20.0)
  end
  begin
     id 5 
     name ltoes
     direction 1.53545e-011 -4.21827e-011 1   
     length 0.916331   
     axis -90 7.62852e-016 20   XYZ
    dof rx
    limits (-90.0 20.0)
  end
  begin
     id 6 
     name rhipjoint
     direction -0.625414 -0.698792 0.347201   
     length 2.2637  
     axis 0 0 0  XYZ 
  end
  begin
     id 7 
     name rfemur
     direction -0.34202 -0.939693 0   
     length 7.07595   
     axis 0 0 -20   XYZ
    dof rx ry rz
    limits (-160.0 20.0)
           (-70.0 70.0)
           (-70.0 60.0)
  end
  begin
     id 8 
     name rtibia
     direction -0.34202 -0.939693 0   
     length 7.22924   
     axis 0 0 -20   XYZ
    dof rx
    limits (-10.0 170.0)
 end
 begin
     id 9 
     name rfoot
     direction -0.0766747 -0.210662 0.974547   
     length 1.98482  
     axis -90 -7.62852e-016 -20   XYZ
    dof rx rz
    limits (-45.0 90.0)
           (-20.0 70.0)
  end
  begin
     id 10 
     name rtoes
     direction -1.53532e-011 -4.21867e-011 1   
     length 0.999842   
     axis -90 -7.62852e-016 -20   XYZ
    dof rx
    limits (-90.0 20.0)
  end
  begin
     id 11 
     name lowerback
     direction -0.0224668 0.997354 -0.0691422   
     length 2.09945   
     axis 0 0 0   XYZ
    dof rx ry rz
    limits (-20.0 45.0)
           (-30.0 30.0)
           (-30.0 30.0)
  end
  begin
     id 12 
     name upperback
     direction 0.0134698 0.998451 -0.0539888   
     length 2.09758   
     axis 0 0 0   XYZ
    dof rx ry rz
    limits (-20.0 45.0)
           (-30.0 30.0)
           (-30.0 30.0)
  end
  begin
     id 13 
     name thorax
     direction 0.0241905 0.99948 -0.0213333   
     length 2.10428   
     axis 0 0 0   XYZ
    dof rx ry rz
    limits (-20.0 45.0)
           (-30.0 30.0)
           (-30.0 30.0)
  end
  begin
     id 14 
     name lowerneck
     direction -0.00866847 0.995978 0.0891737   
     length 1.3959   
     axis 0 0 0   XYZ
    dof rx ry rz
    limits (-20.0 45.0)
           (-30.0 30.0)
           (-30.0 30.0)
  end
  begin
     id 15 
     name upperneck
     direction 0.0680679 0.992203 0.104404   
     length 1.39452   
     axis 0 0 0   XYZ
    dof rx ry rz
    limits (-20.0 45.0)
           (-30.0 30.0)
           (-30.0 30.0)
  end
  begin
     id 16
     name head
     direction 0.0242216 0.999358 0.0264054  
     length 1.40433  
     axis 0 0 0   XYZ
    dof rx ry rz
    limits (-20.0 45.0)
           (-30.0 30.0)
           (-30.0 30.0)
  end
  begin
     id 17 
     name lclavicle
     direction 0.929368 0.362991 -0.0671771  
     length 3.04887  
     axis 0 0 0   XYZ
    dof ry rz
    limits (-20.0 10.0)
           (0.0 20.0)
  end
  begin
     id 18 
     name lhumerus
     direction 1 -4.48967e-011 -7.13741e-028   
     length 4.77195   
     axis -180 -30 -90   XYZ
    dof rx ry rz
    limits (-60.0 90.0)
           (-90.0 90.0)
           (-90.0 90.0)
  end
  begin
     id 19
     name lradius
     direction 1 -4.48977e-011 3.60404e-027   
     length 2.98444   
     axis -180 -30 -90   XYZ
    dof rx
    limits (-10.0 170.0)
  end
  begin
     id 20
     name lwrist
     direction 1 -4.48997e-011 7.54877e-027   
     length 1.49222   
     axis -7.18178e-015 90 90   XYZ
    dof ry
    limits (-180.0 0.0)
 end
  begin
     id 21 
     name lhand
     direction 1 -4.489e-011 1.51105e-026   
     length 0.992285   
     axis -9.63605e-015 90 90   XYZ
    dof rx rz
    limits (-90.0 90.0)
           (-45.0 45.0)
  end
  begin
     id 22 
     name lfingers
     direction 1 -4.48998e-011 3.01948e-026   
     length 0.800006   
     axis -1.92718e-014 90 90   XYZ
    dof rx
    limits (0.0 90.0)
  end
  begin
     id 23
     name lthumb
     direction 0.707107 -6.34881e-011 0.707107   
     length 1.14865   
     axis -90 45 -3.53137e-014   XYZ
    dof rx rz
    limits (-45.0 45.0)
           (-45.0 45.0)
  end
  begin
     id 24 
     name rclavicle
     direction -0.945672 0.324529 0.0196374   
     length 3.4236  
     axis 0 0 0   XYZ 
    dof ry rz
    limits (-10.0 20.0)
           (-20.0 0.0)
  end
  begin
     id 25 
     name rhumerus
     direction -1 -4.4896e-011 1.02757e-029  
     length 4.62052   
     axis -180 30 90   XYZ
    dof rx ry rz
    limits (-90.0 60.0)
           (-90.0 90.0)
           (-90.0 90.0)
  end
  begin
     id 26 
     name rradius
     direction -1 -4.48982e-011 3.85962e-027   
     length 2.95332   
     axis -180 30 90   XYZ
    dof rx
    limits (-10.0 170.0)
  end
  begin
     id 27 
     name rwrist
     direction -1 -4.48961e-011 7.55118e-027   
     length 1.47666   
     axis -7.18178e-015 -90 -90   XYZ
    dof ry
    limits (-180.0 0.0)
  end
  begin
     id 28
     name rhand
     direction -1 -4.48984e-011 1.50994e-026   
     length 0.990956   
     axis -9.63605e-015 -90 -90   XYZ
    dof rx rz
    limits (-90.0 90.0)
           (-45.0 45.0)
  end
  begin
     id 29
     name rfingers
     direction -1 -4.4892e-011 3.02158e-026   
     length 0.798934   
     axis -1.92718e-014 -90 -90   XYZ
    dof rx
    limits (0.0 90.0)
  end
  begin
     id 30
     name rthumb
     direction -0.707107 -6.34916e-011 0.707107   
     length 1.14711   
     axis -90 -45 3.53137e-014   XYZ
    dof rx rz
    limits (-45.0 45.0)
           (-45.0 45.0)
  end
:hierarchy
  begin
    root lhipjoint rhipjoint lowerback
    lhipjoint lfemur
    lfemur ltibia
    ltibia lfoot
    lfoot ltoes
    rhipjoint rfemur
    rfemur rtibia
    rtibia rfoot
    rfoot rtoes
    lowerback upperback
    upperback thorax
    thorax lowerneck lclavicle rclavicle
    lowerneck upperneck
    upperneck head
    lclavicle lhumerus
    lhumerus lradius
    lradius lwrist
    lwrist lhand lthumb
    lhand lfingers
    rclavicle rhumerus
    rhumerus rradius
    rradius rwrist
    rwrist rhand rthumb
    rhand rfingers
  end

#!OML:ASF H:\ManfredObstacles\Project 1\Capture day 1\Session 1\Male.ASF
:FULLY-SPECIFIED
:DEGREES
107
root 1.20743 16.1928 33.7422 -171.778 -8.54734 -177.188
lowerback -6.70004 -2.56795 -0.0126223
upperback 2.14616 -3.5448 1.56334
thorax 6.09685 -1.79043 1.21247
lowerneck 2.22794 -2.25382 -6.122
upperneck -8.91455 -2.91978 9.18252
head -2.76338 -1.7357 3.87549
rclavicle 9.80257e-015 -7.55382e-015
rhumerus -37.9704 -29.2897 -71.3384
rradius 24.345
rwrist 38.634
rhand -4.27956 -6.31672
rfingers 7.12502
rthumb 21.4855 -35.1452
lclavicle 9.80257e-015 -7.55382e-015
lhumerus -22.6 8.1875 87.7698
lradius 20.5395
lwrist -24.909
lhand -10.2319 6.79184
lfingers 7.12502
lthumb 15.7603 36.1702
rfemur -21.3672 -2.85373 26.6025
rtibia 27.4677
rfoot -19.1781 12.3026
rtoes 19.5463
lfemur -29.855 -5.24148 -14.0725
ltibia 60.981
lfoot -2.63073 2.25346
ltoes 9.54755
108
root 1.22711 16.174 33.6356 -171.823 -8.23062 -177.156
lowerback -6.72506 -2.47479 -0.0440709
upperback 2.12786 -3.4156 1.54705
thorax 6.08926 -1.72718 1.22806
lowerneck 2.23867 -2.23845 -6.09841
upperneck -8.78885 -2.90043 9.12888
head -2.73077 -1.72012 3.85246
rclavicle -1.1778e-014 -2.78299e-015
rhumerus -37.763 -29.2501 -71.4863
rradius 24.4447
rwrist 38.4142
rhand -4.21457 -6.41235
rfingers 7.12502
rthumb 21.5479 -35.2336
lclavicle -1.1778e-014 -2.78299e-015
lhumerus -22.774 8.05021 87.6756
lradius 20.5675
lwrist -24.9059
lhand -10.1262 6.67959
lfingers 7.12502
lthumb 15.8621 36.0499
rfemur -21.0671 -2.78212 26.7522
rtibia 27.7573
rfoot -19.6005 12.6308
rtoes 19.6783
lfemur -31.2239 -5.42751 -14.0799
ltibia 60.336
lfoot -3.61826 2.23538
ltoes 3.90573
109
root 1.24335 16.1591 33.5211 -171.93 -7.84244 -177.28
lowerback -6.71071 -2.37495 -0.171297
upperback 2.12651 -3.26001 1.4266
thorax 6.07528 -1.65131 1.19341
lowerneck 2.31949 -2.21565 -5.96529
upperneck -8.83593 -2.87131 9.02139
head -2.76465 -1.70769 3.79912
rclavicle -2.56929e-014 1.54058e-014
rhumerus -37.5941 -29.0786 -71.7978
rradius 24.5081
rwrist 38.1681
rhand -4.29886 -6.37135
rfingers 7.12502
rthumb 21.4669 -35.2019
lclavicle -2.56929e-014 1.54058e-014
lhumerus -23.0104 7.92557 87.4646
lradius 20.5111
lwrist -25.068
lhand -9.80818 7.27877
lfingers 7.12502
lthumb 16.1684 36.6244
rfemur -20.6782 -2.84196 26.7202
rtibia 28.1405
rfoot -20.0163 13.138
rtoes 20.659
lfemur -32.3024 -5.68913 -14.2383
ltibia 59.1977
lfoot -4.48362 2.41155
ltoes -1.80767
110
root 1.25488 16.1482 33.4075 -171.982 -7.50046 -177.341
lowerback -6.75674 -2.28186 -0.111141
upperback 2.14865 -3.12925 1.26675
thorax 6.10861 -1.57982 1.00695
lowerneck 2.27892 -2.19243 -5.83801
upperneck -8.85296 -2.83972 8.94821
head -2.76879 -1.69406 3.75467
rclavicle -2.36057e-014 2.06736e-014
rhumerus -37.3434 -28.8812 -72.2858
rradius 24.6005
rwrist 37.9586
rhand -4.33449 -6.43805
rfingers 7.12502
rthumb 21.4327 -35.2725
lclavicle -2.36057e-014 2.06736e-014
lhumerus -23.1887 7.83303 87.1374
lradius 20.394
lwrist -25.2597
lhand -9.27395 8.5352
lfingers 7.12502
lthumb 16.6827 37.8383
rfemur -20.3925 -2.91172 26.7467
rtibia 28.5926
rfoot -20.5314 13.5305
rtoes 21.1944
lfemur -33.3275 -6.07935 -14.2444
ltibia 57.6152
lfoot -5.52414 1.94225
ltoes 0.367129
111
root 1.2636 16.1229 33.2964 -171.935 -7.12743 -177.432
lowerback -6.83888 -2.20528 -0.15007
upperback 2.13014 -3.01422 1.15627
thorax 6.12916 -1.52087 0.924901
lowerneck 2.2218 -2.16464 -5.82756
upperneck -8.80279 -2.80558 8.86527
head -2.74875 -1.67154 3.72493
rclavicle 2.20403e-014 -1.39149e-015
rhumerus -37.068 -28.3837 -72.8034
rradius 24.7486
rwrist 37.6329
rhand -4.31919 -6.45144
rfingers 7.12502
rthumb 21.4474 -35.2842
lclavicle 2.20403e-014 -1.39149e-015
lhumerus -23.3758 8.24911 86.7176
lradius 20.1853
lwrist -25.7189
lhand -9.16158 8.87492
lfingers 7.12502
lthumb 16.7909 38.1689
rfemur -20.2122 -2.73671 26.7076
rtibia 29.0015
rfoot -21.0608 13.7049
rtoes 20.9815
lfemur -34.2579 -6.49555 -14.2191
ltibia 55.641
lfoot -6.36409 2.35723
ltoes 0.921307
112
root 1.27526 16.1017 33.1825 -171.927 -6.61702 -177.513
lowerback -6.83636 -2.09828 -0.338082
upperback 2.1102 -2.8512 1.13429
thorax 6.11142 -1.44667 1.02765
lowerneck 2.22238 -2.10601 -6.00258
upperneck -8.90566 -2.73229 8.88141
head -2.78209 -1.63263 3.75915
rclavicle 4.69629e-015 -2.38542e-015
rhumerus -36.679 -27.6407 -73.3148
rradius 24.8134
rwrist 37.2052
rhand -4.35038 -6.35066
rfingers 7.12502
rthumb 21.4175 -35.1869
lclavicle 4.69629e-015 -2.38542e-015
lhumerus -23.5594 9.03436 86.314
lradius 19.8625
lwrist -26.4361
lhand -9.40901 8.50784
lfingers 7.12502
lthumb 16.5527 37.8219
rfemur -19.9239 -2.58001 26.6825
rtibia 29.2767
rfoot -21.4306 14.1335
rtoes 20.6348
lfemur -34.8988 -6.66493 -14.1548
ltibia 53.3035
lfoot -6.82248 2.2273
ltoes 0.736826
113
root 1.28393 16.096 33.0652 -171.932 -6.10815 -177.551
lowerback -6.82955 -1.96296 -0.429065
upperback 2.11057 -2.65883 1.09455
thorax 6.10546 -1.35414 1.06093
lowerneck 2.22725 -2.034 -6.16916
upperneck -9.12015 -2.63742 8.99315
head -2.84954 -1.59215 3.82307
rclavicle -8.49804e-015 1.15295e-014
rhumerus -36.3157 -26.9171 -73.8884
rradius 24.9412
rwrist 36.6667
rhand -4.2561 -6.41512
rfingers 7.12502
rthumb 21.508 -35.241
lclavicle -8.49804e-015 1.15295e-014
lhumerus -23.7217 9.9923 85.8212
lradius 19.4595
lwrist -27.3658
lhand -9.57266 8.13721
lfingers 7.12502
lthumb 16.3951 37.4643
rfemur -19.5109 -2.6244 26.6996
rtibia 29.3623
rfoot -21.7806 14.7734
rtoes 19.5278
lfemur -35.3402 -6.77514 -13.9999
ltibia 50.6573
lfoot -7.05289 2.66498
ltoes -0.731328
114
root 1.28747 16.0961 32.9448 -171.98 -5.67232 -177.521
lowerback -6.79719 -1.83593 -0.358548
upperback 2.10876 -2.48951 1.01011
thorax 6.07359 -1.26584 0.955234
lowerneck 2.16952 -2.39042 -6.18029
upperneck -9.0804 -2.4759 9.0746
head -2.8303 -1.23292 3.82975
rclavicle -1.85615e-014 8.74653e-015
rhumerus -36.0959 -26.4103 -74.4153
rradius 25.0994
rwrist 36.2343
rhand -4.03467 -6.51315
rfingers 7.12502
rthumb 21.7207 -35.3146
lclavicle -1.85615e-014 8.74653e-015
lhumerus -23.9504 10.9719 85.203
lradius 19.061
lwrist -28.2544
lhand -9.70428 8.10348
lfingers 7.12502
lthumb 16.2684 37.441
rfemur -18.9217 -2.60923 26.7548
rtibia 29.2484
rfoot -22.217 15.2342
rtoes 18.1339
lfemur -35.6241 -6.95996 -13.7147
ltibia 47.7706
lfoot -7.15512 2.75185
ltoes -0.899249
115
root 1.2898 16.0976 32.8215 -172.153 -5.15716 -177.295
lowerback -6.69092 -1.66948 -0.101469
upperback 2.14344 -2.28902 0.966802
thorax 6.03247 -1.15709 0.792885
lowerneck 2.05191 -2.35006 -6.14587
upperneck -8.92189 -2.43002 9.04272
head -2.76844 -1.20834 3.80916
rclavicle -4.32357e-015 -7.55382e-015
rhumerus -35.8024 -26.2083 -74.8404
rradius 25.0631
rwrist 36.1317
rhand -3.86872 -6.48231
rfingers 7.12502
rthumb 21.88 -35.2652
lclavicle -4.32357e-015 -7.55382e-015
lhumerus -24.1939 11.9172 84.5345
lradius 18.6344
lwrist -29.0145
lhand -9.66364 8.19018
lfingers 7.12502
lthumb 16.3075 37.5245
rfemur -18.1112 -2.47079 26.9922
rtibia 28.981
rfoot -22.5267 15.6798
rtoes 18.1998
lfemur -35.6997 -6.96021 -13.2177
ltibia 44.7396
lfoot -6.87017 2.2122
ltoes -0.961438
116
root 1.28842 16.0961 32.6972 -172.261 -4.5472 -177.343
lowerback -6.67948 -1.49768 -0.147061
upperback 2.20531 -2.05086 0.884489
thorax 6.0853 -1.03971 0.760512
lowerneck 2.04836 -2.30147 -6.18972
upperneck -8.95655 -2.36742 9.00199
head -2.78313 -1.17445 3.80305
rclavicle 6.5102e-015 -9.74045e-015
rhumerus -35.4249 -26.1856 -75.1521
rradius 24.9433
rwrist 36.3152
rhand -3.72339 -6.51989
rfingers 7.12502
rthumb 22.0196 -35.2864
lclavicle 6.5102e-015 -9.74045e-015
lhumerus -24.4581 12.9757 83.8831
lradius 18.307
lwrist -29.7639
lhand -9.46134 8.15644
lfingers 7.12502
lthumb 16.5023 37.4747
rfemur -17.3298 -2.53499 26.9161
rtibia 28.6271
rfoot -22.65 16.3832
rtoes 19.0285
lfemur -35.6505 -6.99017 -13.0346
ltibia 41.6512
lfoot -6.14004 1.51277
ltoes -1.3153
117
root 1.28483 16.0982 32.5711 -172.265 -4.00209 -177.531
lowerback -6.77321 -1.37813 -0.338312
upperback 2.25878 -1.86616 0.770053
thorax 6.19438 -0.953091 0.767678
lowerneck 2.12349 -2.22465 -6.26559
upperneck -9.1511 -2.24656 9.05289
head -2.86079 -1.11293 3.83236
rclavicle 4.07509e-015 5.96354e-016
rhumerus -35.065 -26.1466 -75.5027
rradius 24.9117
rwrist 36.5232
rhand -3.54055 -6.58879
rfingers 7.12502
rthumb 22.1951 -35.3345
lclavicle 4.07509e-015 5.96354e-016
lhumerus -24.7789 13.8083 83.3131
lradius 18.1419
lwrist -30.2322
lhand -9.33871 8.54817
lfingers 7.12502
lthumb 16.6204 37.8565
rfemur -16.6366 -2.77981 26.682
rtibia 28.2309
rfoot -22.6946 17.146
rtoes 19.6934
lfemur -35.547 -7.03156 -13.0259
ltibia 38.5659
lfoot -4.99785 0.481268
ltoes -1.13651
118
root 1.28106 16.1041 32.4419 -172.338 -3.58295 -177.519
lowerback -6.80809 -1.28387 -0.346026
upperback 2.32173 -1.73647 0.707457
thorax 6.27654 -0.888464 0.720898
lowerneck 2.20822 -2.14476 -6.24787
upperneck -9.30562 -2.12101 9.09151
head -2.93015 -1.05215 3.84163
rclavicle -3.97569e-015 -6.55989e-015
rhumerus -34.6963 -25.9654 -75.949
rradius 24.8905
rwrist 36.5647
rhand -3.46883 -6.53354
rfingers 7.12502
rthumb 22.264 -35.2711
lclavicle -3.97569e-015 -6.55989e-015
lhumerus -25.0015 14.6431 82.7218
lradius 17.7665
lwrist -30.7199
lhand -9.15579 8.96556
lfingers 7.12502
lthumb 16.7965 38.2591
rfemur -15.8333 -2.83769 26.654
rtibia 27.8226
rfoot -22.793 17.5771
rtoes 19.955
lfemur -35.3205 -6.85497 -12.8803
ltibia 35.5409
lfoot -3.73436 -0.958789
ltoes -1.3914
119
root 1.27484 16.1099 32.3094 -172.42 -3.20219 -177.655
lowerback -6.83193 -1.19978 -0.521883
upperback 2.36048 -1.60306 0.634092
thorax 6.33158 -0.828123 0.758454
lowerneck 2.34743 -2.08882 -6.21663
upperneck -9.37286 -2.05366 9.03085
head -2.98009 -1.0222 3.81904
rclavicle 1.11319e-014 3.97569e-015
rhumerus -34.3663 -25.7953 -76.2587
rradius 24.7725
rwrist 36.6444
rhand -3.52618 -6.523
rfingers 7.12502
rthumb 22.2089 -35.2671
lclavicle 1.11319e-014 3.97569e-015
lhumerus -25.2172 15.883 82.0403
lradius 17.187
lwrist -31.7103
lhand -8.9961 9.01659
lfingers 7.12502
lthumb 16.9502 38.297
rfemur -14.9656 -2.81262 26.4521
rtibia 27.3527
rfoot -22.8691 17.8342
rtoes 19.3628
lfemur -35.0111 -6.68013 -12.9564
ltibia 32.6468
lfoot -2.22747 -1.90055
ltoes -1.63355
120
root 1.266 16.1172 32.1755 -172.411 -2.8529 -177.723
lowerback -6.949 -1.14155 -0.658987
upperback 2.37306 -1.51061 0.61934
thorax 6.41353 -0.787682 0.829005
lowerneck 2.28786 -2.04967 -6.30306
upperneck -9.19382 -2.02823 8.98633
head -2.91882 -1.00752 3.81589
rclavicle 5.61567e-015 -1.78906e-015
rhumerus -34.0308 -25.6986 -76.4922
rradius 24.6704
rwrist 36.924
rhand -3.51015 -6.56764
rfingers 7.12502
rthumb 22.2243 -35.3099
lclavicle 5.61567e-015 -1.78906e-015
lhumerus -25.5216 17.3662 81.2914
lradius 16.6112
lwrist -33.1218
lhand -9.03065 8.95719
lfingers 7.12502
lthumb 16.9169 38.2404
rfemur -14.176 -2.86613 26.3225
rtibia 26.7939
rfoot -22.8719 18.167
rtoes 18.4692
lfemur -34.7528 -6.52341 -12.9749
ltibia 29.9762
lfoot -0.948845 -2.64055
ltoes -1.90499
121
root 1.25414 16.1217 32.0401 -172.416 -2.49287 -177.674
lowerback -7.02808 -1.07572 -0.678037
upperback 2.37606 -1.421 0.629838
thorax 6.4609 -0.744616 0.860399
lowerneck 2.1644 -2.01661 -6.24308
upperneck -8.96681 -2.01441 8.81236
head -2.83563 -0.997725 3.74757
rclavicle 1.87355e-014 -6.16232e-015
rhumerus -33.7491 -25.4144 -76.8328
rradius 24.7165
rwrist 37.0677
rhand -3.51823 -6.57358
rfingers 7.12502
rthumb 22.2165 -35.3168
lclavicle 1.87355e-014 -6.16232e-015
lhumerus -25.8771 18.968 80.405
lradius 15.9537
lwrist -34.7665
lhand -9.15826 8.80011
lfingers 7.12502
lthumb 16.7941 38.0938
rfemur -13.359 -2.82991 26.3031
rtibia 26.2033
rfoot -22.911 18.4307
rtoes 17.9731
lfemur -34.4431 -6.26082 -12.9205
ltibia 27.5861
lfoot 0.0689389 -2.69278
ltoes -2.34891
